<svg width="48" height="48" viewBox="0 0 48 48" fill="none" xmlns="http://www.w3.org/2000/svg">
<g clip-path="url(#clip0_623_20)">
<path d="M0 0C15.84 0 31.68 0 48 0C48 15.84 48 31.68 48 48C32.16 48 16.32 48 0 48C0 32.16 0 16.32 0 0Z" fill="#17151C"/>
<path d="M22 17C22.99 17 23.98 17 25 17C25 18.98 25 20.96 25 23C28.3 23 31.6 23 35 23C35 21.02 35 19.04 35 17C35.66 17 37.32 17 38 17C38 21.62 38 27.24 38 32C37.34 32 35 32 35 32C35 32 35 27.7 35 26C31.7 26 28.4 26 25 26C25 27.98 25 29.96 25 32C24.01 32 23.02 32 22 32C22 27.05 22 22.1 22 17Z" fill="#D0D0D1"/>
<path d="M4 17C8.95 17 13.9 17 19 17C19 17.99 19 18.98 19 20C17.02 20 15.04 20 13 20C13 23.96 13 27.92 13 32C12.01 32 11.02 32 10 32C10 28.04 10 24.08 10 20C8.02 20 6.04 20 4 20C4 19.01 4 18.02 4 17Z" fill="#D2D1D3"/>
<path d="M41 30C44.3312 30 39.5867 30 43.0189 30C43.0189 30.6615 43.0189 31.323 43.0189 32.0045C44.3917 32.0045 41.6864 32.0045 43.0189 32.0045C43.0189 29.2784 43.0189 34.6504 43.0189 32.0045C42.3526 32.0045 41.6864 32.0045 40.9999 32.0045C40.9999 34.7306 40.9999 29.3586 40.9999 32.0045C42.3728 32.0045 39.6674 32.0045 40.9999 32.0045C40.9999 31.343 41 30.6815 41 30Z" fill="#D5D5D6"/>
</g>
<defs>
<clipPath id="clip0_623_20">
<rect width="48" height="48" fill="white"/>
</clipPath>
</defs>
</svg>
