<svg width="30" height="30" viewBox="0 0 30 30" fill="none" xmlns="http://www.w3.org/2000/svg">
<path d="M27 27.7987C24.6561 27.7987 22.5155 27.8251 20.3763 27.7705C20.0535 27.7621 19.638 27.4501 19.4365 27.1547C17.5461 24.3831 15.6938 21.5843 13.8291 18.7941C13.6857 18.5796 13.534 18.3709 13.3166 18.0601C11.9141 19.7329 10.5481 21.3597 9.18572 22.9897C8.20584 24.1621 7.155 25.2827 6.27588 26.5309C5.48056 27.6599 4.54745 28.0915 3.13778 27.6811C6.21316 23.9901 9.27569 20.3155 12.3701 16.6023C9.26747 11.9443 6.19055 7.32289 3 2.53149C5.41013 2.53149 7.60381 2.50608 9.79545 2.56274C10.0797 2.57015 10.4237 2.9509 10.6216 3.24321C12.5361 6.0758 14.4255 8.92692 16.3601 11.8299C18.6025 9.14192 20.8483 6.53228 22.9931 3.83737C23.8223 2.79574 24.6701 2.17246 26.1343 2.67977C23.2147 6.18489 20.2981 9.68524 17.3193 13.2608C20.5145 18.0585 23.7 22.8436 27 27.7987ZM23.9555 26.2253C23.8649 25.9908 23.846 25.8928 23.7956 25.8187C19.0283 18.7829 14.2615 11.7479 9.47979 4.72279C9.33481 4.50991 9.0464 4.28591 8.81351 4.27213C7.93439 4.21919 7.05012 4.25096 6.11445 4.25096C6.16587 4.44531 6.16792 4.54804 6.21521 4.61847C10.999 11.6827 15.7832 18.7464 20.5876 25.7959C20.7387 26.0172 21.094 26.1893 21.3649 26.2068C22.1889 26.2597 23.0188 26.2253 23.9555 26.2253Z" fill="#FBFBFB"/>
</svg>
